<svg xmlns="http://www.w3.org/2000/svg" width="337" height="196" fill="none"><path fill="url(#a)" d="m293.141 92.235-19.969-11.53v34.589l19.969 11.53V92.235z"/><path fill="#E1C6FE" d="m313.111 80.706-19.97 11.53v34.588l19.97-11.53V80.706zm-59.909 34.588 9.985 5.765 9.985-5.765V80.706l-19.97 11.53v23.058z"/><path fill="url(#b)" d="m243.217 86.47-10.049 5.802-.063 11.419 20.097 11.603V92.235l-9.985-5.764z"/><path fill="url(#c)" d="m243.217 86.47-9.984-5.764-.065 11.566 10.049-5.801z"/><path fill="#E1C6FE" d="m283.157 132.588-19.97 11.53v34.588l19.97-11.53v-34.588zm-89.863 17.294-19.97 11.53V196l19.97-11.529v-34.589zm0-23.058-19.97 11.529 19.97 11.529v-23.058z"/><path fill="url(#d)" d="m263.187 144.118-59.909-34.589v34.589l59.909 34.588v-34.588z"/><path fill="url(#e)" d="m173.324 138.353-19.969-11.529v23.058l19.969-11.529z"/><path fill="url(#f)" d="m173.324 161.412-19.969-11.53v34.589L173.324 196v-34.588z"/><path fill="#E1C6FE" d="m143.37 109.529-59.909 34.589v34.588l59.909-34.588v-34.589z"/><path fill="url(#g)" d="m83.461 144.118-19.97-11.53v34.588l19.97 11.53v-34.588z"/><path fill="url(#h)" d="m53.507 92.235-19.97-11.53v34.589l19.97 11.53V92.235z"/><path fill="#E1C6FE" d="m73.477 80.706-19.97 11.53v34.588l19.97-11.53V80.706z"/><path fill="url(#i)" d="m83.461 121.059 9.985-5.765V92.235l-19.97-11.53v34.589l9.985 5.765z"/><path fill="#E1C6FE" d="m113.416 80.706-19.97 11.53v23.058l19.97-11.529v-23.06z"/><path fill="url(#j)" d="m83.461 40.353-19.97-11.53v34.589l19.97 11.53 9.985-5.765 19.97 11.529v11.53L123.4 98V63.412l-39.939-23.06z"/><path fill="#E1C6FE" d="m143.37 51.882-19.97 11.53V98l19.97-11.53V51.883zm29.954-28.823 19.97 11.53v-23.06l-19.97 11.53z"/><path fill="#E1C6FE" d="m193.294 34.588-19.97 11.53v11.53l19.97-11.53v-11.53z"/><path fill="url(#k)" fill-rule="evenodd" d="m83.461 17.294-19.97 11.53 19.97 11.529L123.4 63.412l19.97-11.53-59.909-34.588zM223.248 98l-19.97 11.529 59.909 34.589 19.97-11.53-19.97-11.529-9.985-5.765-20.097-11.603L223.248 98zm39.939-80.706 19.97 11.53-59.909 34.588-19.97-11.53 59.909-34.588zM143.37 109.53 123.4 98l-9.984 5.765-19.97 11.529-9.985 5.765-19.97 11.529 19.97 11.53 59.909-34.589zm49.924-98-19.97 11.53-19.969-11.53L173.324 0l19.97 11.53zM93.446 69.177l-9.985 5.764-9.984 5.765-19.97-11.53-19.97 11.53 19.97 11.53 19.97-11.53 19.969 11.53 19.97-11.53-19.97-11.53zm179.726 11.529 19.969 11.53 19.97-11.53-19.97-11.53-19.969 11.53zm0 0-9.985-5.765-9.985-5.764-19.969 11.529 9.984 5.765 9.985 5.764 19.97-11.53zm-99.848 57.647-19.969-11.529 19.969-11.53 19.97 11.53-19.97 11.529zm-19.969 11.529 19.969-11.529 19.97 11.529-19.97 11.53-19.969-11.53z" clip-rule="evenodd"/><path fill="url(#l)" d="m153.355 34.588 19.969-11.53-19.969-11.529v23.06z"/><path fill="url(#m)" d="m173.324 46.118-19.969-11.53v11.53l19.969 11.53v-11.53z"/><path fill="#E1C6FE" fill-rule="evenodd" d="M283.157 63.412V28.823l-59.909 34.589V98l9.92-5.728.065-11.566 19.969-11.53 9.985 5.765 19.97-11.53z" clip-rule="evenodd"/><path fill="url(#n)" d="m223.248 63.412-19.97-11.53.939 34.589L223.248 98V63.412z"/><path fill="url(#o)" d="m173.324 23.059-19.969 11.53 19.969 11.529v-23.06z"/><path fill="url(#p)" d="m193.294 34.588-19.97-11.53v23.06l19.97-11.53z"/><path fill="#E1C6FE" d="m193.294 46.118-19.97 11.53v23.058l19.97-11.53V46.119z"/><path fill="url(#q)" d="m173.324 57.647-19.969-11.53v23.06l19.969 11.529V57.647z"/><path fill="url(#r)" d="M0 136h337v60H0z"/><defs><linearGradient id="a" x1="173.324" x2="173.324" y1="0" y2="196" gradientUnits="userSpaceOnUse"><stop stop-color="#fff"/><stop offset="1" stop-color="#fff" stop-opacity=".29"/></linearGradient><linearGradient id="b" x1="173.324" x2="173.324" y1="0" y2="196" gradientUnits="userSpaceOnUse"><stop stop-color="#fff"/><stop offset="1" stop-color="#fff" stop-opacity=".29"/></linearGradient><linearGradient id="c" x1="173.324" x2="173.324" y1="0" y2="196" gradientUnits="userSpaceOnUse"><stop stop-color="#fff"/><stop offset="1" stop-color="#fff" stop-opacity=".29"/></linearGradient><linearGradient id="d" x1="173.324" x2="173.324" y1="0" y2="196" gradientUnits="userSpaceOnUse"><stop stop-color="#fff"/><stop offset="1" stop-color="#fff" stop-opacity=".29"/></linearGradient><linearGradient id="e" x1="173.324" x2="173.324" y1="0" y2="196" gradientUnits="userSpaceOnUse"><stop stop-color="#fff"/><stop offset="1" stop-color="#fff" stop-opacity=".29"/></linearGradient><linearGradient id="f" x1="173.324" x2="173.324" y1="0" y2="196" gradientUnits="userSpaceOnUse"><stop stop-color="#fff"/><stop offset="1" stop-color="#fff" stop-opacity=".29"/></linearGradient><linearGradient id="g" x1="173.324" x2="173.324" y1="0" y2="196" gradientUnits="userSpaceOnUse"><stop stop-color="#fff"/><stop offset="1" stop-color="#fff" stop-opacity=".29"/></linearGradient><linearGradient id="h" x1="173.324" x2="173.324" y1="0" y2="196" gradientUnits="userSpaceOnUse"><stop stop-color="#fff"/><stop offset="1" stop-color="#fff" stop-opacity=".29"/></linearGradient><linearGradient id="i" x1="173.324" x2="173.324" y1="0" y2="196" gradientUnits="userSpaceOnUse"><stop stop-color="#fff"/><stop offset="1" stop-color="#fff" stop-opacity=".29"/></linearGradient><linearGradient id="j" x1="173.324" x2="173.324" y1="0" y2="196" gradientUnits="userSpaceOnUse"><stop stop-color="#fff"/><stop offset="1" stop-color="#fff" stop-opacity=".29"/></linearGradient><linearGradient id="k" x1="173.324" x2="173.324" y1="0" y2="196" gradientUnits="userSpaceOnUse"><stop stop-color="#34414A"/><stop offset="1" stop-color="#34414A"/></linearGradient><linearGradient id="l" x1="173.324" x2="173.324" y1="0" y2="196" gradientUnits="userSpaceOnUse"><stop stop-color="#fff"/><stop offset="1" stop-color="#fff" stop-opacity=".29"/></linearGradient><linearGradient id="m" x1="173.324" x2="173.324" y1="0" y2="196" gradientUnits="userSpaceOnUse"><stop stop-color="#fff"/><stop offset="1" stop-color="#fff" stop-opacity=".29"/></linearGradient><linearGradient id="n" x1="173.324" x2="173.324" y1="0" y2="196" gradientUnits="userSpaceOnUse"><stop stop-color="#fff"/><stop offset="1" stop-color="#fff" stop-opacity=".29"/></linearGradient><linearGradient id="o" x1="173.324" x2="173.324" y1="0" y2="196" gradientUnits="userSpaceOnUse"><stop stop-color="#34414A"/><stop offset="1" stop-color="#34414A"/></linearGradient><linearGradient id="p" x1="173.324" x2="173.324" y1="0" y2="196" gradientUnits="userSpaceOnUse"><stop stop-color="#34414A"/><stop offset="1" stop-color="#34414A"/></linearGradient><linearGradient id="q" x1="173.324" x2="173.324" y1="0" y2="196" gradientUnits="userSpaceOnUse"><stop stop-color="#fff"/><stop offset="1" stop-color="#fff" stop-opacity=".29"/></linearGradient><linearGradient id="r" x1="168.5" x2="168.5" y1="136" y2="196" gradientUnits="userSpaceOnUse"><stop stop-color="#EBD8FF" stop-opacity="0"/><stop offset="1" stop-color="#EBD8FF"/></linearGradient></defs></svg>